<svg width="22" height="22" viewBox="0 0 22 22" fill="none" xmlns="http://www.w3.org/2000/svg">
<path d="M21.2806 0.94935C21.2109 0.879618 21.1282 0.824299 21.0371 0.786555C20.9461 0.748812 20.8485 0.729385 20.7499 0.729385C20.6514 0.729385 20.5538 0.748812 20.4627 0.786555C20.3717 0.824299 20.289 0.879618 20.2193 0.94935L15.3068 5.86279L14.8034 5.35841C14.2401 4.7968 13.4772 4.48143 12.6818 4.48143C11.8864 4.48143 11.1235 4.7968 10.5602 5.35841L8.37493 7.54466L7.78055 6.94935C7.63982 6.80862 7.44895 6.72956 7.24993 6.72956C7.05091 6.72956 6.86003 6.80862 6.7193 6.94935C6.57857 7.09008 6.49951 7.28095 6.49951 7.47998C6.49951 7.679 6.57857 7.86987 6.7193 8.0106L7.31462 8.60498L5.12837 10.7903C4.84972 11.0689 4.62868 11.3996 4.47787 11.7636C4.32706 12.1277 4.24944 12.5178 4.24944 12.9118C4.24944 13.3059 4.32706 13.696 4.47787 14.0601C4.62868 14.4241 4.84972 14.7548 5.12837 15.0334L5.63274 15.5368L0.719304 20.4493C0.649621 20.519 0.594346 20.6018 0.556634 20.6928C0.518922 20.7838 0.499512 20.8814 0.499512 20.98C0.499512 21.0785 0.518922 21.1761 0.556634 21.2671C0.594346 21.3582 0.649621 21.4409 0.719304 21.5106C0.860034 21.6513 1.05091 21.7304 1.24993 21.7304C1.34847 21.7304 1.44606 21.711 1.5371 21.6733C1.62815 21.6356 1.71087 21.5803 1.78055 21.5106L6.69305 16.5972L7.19649 17.1015C7.47508 17.3802 7.80582 17.6012 8.16984 17.752C8.53387 17.9028 8.92403 17.9805 9.31805 17.9805C9.71208 17.9805 10.1022 17.9028 10.4663 17.752C10.8303 17.6012 11.161 17.3802 11.4396 17.1015L13.6249 14.9153L14.2193 15.5106C14.289 15.5803 14.3717 15.6356 14.4628 15.6733C14.5538 15.711 14.6514 15.7304 14.7499 15.7304C14.8485 15.7304 14.9461 15.711 15.0371 15.6733C15.1281 15.6356 15.2109 15.5803 15.2806 15.5106C15.3502 15.4409 15.4055 15.3582 15.4432 15.2671C15.4809 15.1761 15.5003 15.0785 15.5003 14.98C15.5003 14.8814 15.4809 14.7838 15.4432 14.6928C15.4055 14.6018 15.3502 14.519 15.2806 14.4493L14.6852 13.855L16.8715 11.6697C17.1501 11.3911 17.3712 11.0603 17.522 10.6963C17.6728 10.3323 17.7504 9.94212 17.7504 9.5481C17.7504 9.15408 17.6728 8.76391 17.522 8.39989C17.3712 8.03587 17.1501 7.70512 16.8715 7.42654L16.3671 6.9231L21.2806 2.0106C21.3503 1.94095 21.4056 1.85823 21.4433 1.76718C21.4811 1.67613 21.5005 1.57854 21.5005 1.47998C21.5005 1.38141 21.4811 1.28382 21.4433 1.19277C21.4056 1.10172 21.3503 1.01901 21.2806 0.94935ZM10.3784 16.0431C10.0971 16.3242 9.71571 16.4821 9.31805 16.4821C8.9204 16.4821 8.53902 16.3242 8.25774 16.0431L6.18962 13.9722C5.90852 13.6909 5.75062 13.3095 5.75062 12.9118C5.75062 12.5142 5.90852 12.1328 6.18962 11.8515L8.37493 9.66529L12.5646 13.855L10.3784 16.0431ZM15.8102 10.6112L13.6249 12.7947L9.43524 8.60498L11.6215 6.41966C11.9028 6.13857 12.2842 5.98067 12.6818 5.98067C13.0795 5.98067 13.4608 6.13857 13.7421 6.41966L15.8102 8.48216C15.9503 8.62154 16.0614 8.78721 16.1372 8.96965C16.213 9.15209 16.2521 9.34772 16.2521 9.54529C16.2521 9.74286 16.213 9.93848 16.1372 10.1209C16.0614 10.3034 15.9503 10.469 15.8102 10.6084V10.6112ZM7.30337 2.51123C7.22877 2.32649 7.23062 2.11968 7.30851 1.93631C7.3864 1.75293 7.53394 1.608 7.71868 1.53341C7.90342 1.45882 8.11022 1.46067 8.2936 1.53856C8.47697 1.61644 8.6219 1.76399 8.69649 1.94873L9.44649 3.82373C9.48343 3.9152 9.50198 4.01305 9.5011 4.1117C9.50022 4.21034 9.47991 4.30785 9.44135 4.39865C9.40278 4.48944 9.34671 4.57176 9.27633 4.64089C9.20596 4.71001 9.12265 4.7646 9.03118 4.80154C8.9397 4.83847 8.84185 4.85703 8.74321 4.85614C8.64456 4.85526 8.54706 4.83496 8.45626 4.79639C8.36546 4.75783 8.28315 4.70176 8.21402 4.63138C8.14489 4.561 8.0903 4.4777 8.05337 4.38623L7.30337 2.51123ZM1.30337 7.94873C1.34017 7.85715 1.39469 7.77374 1.46379 7.70328C1.53289 7.63281 1.61522 7.57668 1.70606 7.5381C1.7969 7.49952 1.89446 7.47924 1.99315 7.47844C2.09184 7.47763 2.18972 7.49632 2.28118 7.53341L4.15618 8.28341C4.24765 8.32035 4.33096 8.37494 4.40133 8.44407C4.47171 8.51319 4.52778 8.59551 4.56635 8.68631C4.60491 8.7771 4.62522 8.87461 4.6261 8.97325C4.62698 9.0719 4.60843 9.16975 4.57149 9.26123C4.53456 9.3527 4.47997 9.436 4.41084 9.50638C4.34171 9.57676 4.2594 9.63283 4.1686 9.67139C4.0778 9.70996 3.9803 9.73026 3.88165 9.73114C3.78301 9.73203 3.68515 9.71347 3.59368 9.67654L1.71868 8.92654C1.6271 8.88973 1.54369 8.83522 1.47323 8.76611C1.40277 8.69701 1.34663 8.61468 1.30805 8.52384C1.26947 8.433 1.2492 8.33544 1.24839 8.23675C1.24759 8.13806 1.26627 8.04018 1.30337 7.94873ZM20.6965 14.5112C20.6599 14.6027 20.6057 14.6861 20.5369 14.7566C20.4682 14.8272 20.3862 14.8834 20.2956 14.9223C20.2051 14.9611 20.1078 14.9817 20.0093 14.9829C19.9107 14.9841 19.813 14.9659 19.7215 14.9293L17.8465 14.1793C17.7548 14.1426 17.6713 14.0882 17.6007 14.0191C17.5301 13.9501 17.4737 13.8678 17.4349 13.777C17.3961 13.6862 17.3755 13.5887 17.3744 13.4899C17.3733 13.3912 17.3916 13.2932 17.4284 13.2015C17.4651 13.1099 17.5196 13.0264 17.5886 12.9557C17.6576 12.8851 17.7399 12.8288 17.8307 12.79C17.9215 12.7511 18.019 12.7306 18.1178 12.7295C18.2165 12.7283 18.3145 12.7467 18.4062 12.7834L20.2812 13.5334C20.3728 13.5702 20.4562 13.6247 20.5266 13.6938C20.5971 13.7629 20.6532 13.8453 20.6918 13.9361C20.7304 14.0269 20.7507 14.1245 20.7515 14.2232C20.7523 14.3219 20.7336 14.4198 20.6965 14.5112ZM14.6965 19.9543C14.7331 20.0458 14.7512 20.1436 14.75 20.2421C14.7488 20.3406 14.7282 20.4379 14.6894 20.5284C14.6505 20.619 14.5943 20.701 14.5237 20.7698C14.4532 20.8386 14.3698 20.8928 14.2784 20.9293C14.1869 20.9659 14.0891 20.9841 13.9906 20.9829C13.8921 20.9817 13.7948 20.961 13.7043 20.9222C13.6137 20.8834 13.5317 20.8271 13.4629 20.7566C13.3942 20.6861 13.3399 20.6027 13.3034 20.5112L12.5534 18.6362C12.4788 18.4515 12.4806 18.2447 12.5585 18.0613C12.6364 17.8779 12.7839 17.733 12.9687 17.6584C13.1534 17.5838 13.3602 17.5857 13.5436 17.6636C13.727 17.7414 13.8719 17.889 13.9465 18.0737L14.6965 19.9543Z" fill="#2080F7"/>
</svg>
