<svg width="22" height="22" viewBox="0 0 22 22" fill="none" xmlns="http://www.w3.org/2000/svg">
<path d="M20.9711 0.918736C20.7825 0.730234 20.547 0.595424 20.2889 0.528192C20.0309 0.46096 19.7596 0.463737 19.503 0.536236H19.4889L1.49452 5.99624C1.20239 6.08043 0.942742 6.2514 0.749978 6.48649C0.557214 6.72159 0.440437 7.00971 0.415122 7.31267C0.389807 7.61564 0.45715 7.91914 0.608226 8.18296C0.759302 8.44679 0.986979 8.65848 1.26109 8.78999L9.22234 12.6675L13.0942 20.624C13.2146 20.881 13.4061 21.0982 13.646 21.2499C13.8859 21.4015 14.1642 21.4814 14.448 21.48C14.4911 21.48 14.5342 21.4781 14.5773 21.4744C14.8801 21.4499 15.168 21.3333 15.4026 21.1405C15.6372 20.9476 15.8072 20.6876 15.8898 20.3953L21.3461 2.40092C21.3461 2.39624 21.3461 2.39155 21.3461 2.38686C21.4195 2.13089 21.4235 1.85998 21.3576 1.60197C21.2917 1.34395 21.1583 1.10813 20.9711 0.918736ZM14.4564 19.9659L14.4517 19.979V19.9725L10.6961 12.2569L15.1961 7.75686C15.3308 7.61506 15.4048 7.42625 15.4023 7.23068C15.3998 7.03511 15.321 6.84825 15.1827 6.70995C15.0444 6.57165 14.8575 6.49285 14.662 6.49034C14.4664 6.48784 14.2776 6.56183 14.1358 6.69655L9.63577 11.1965L1.91734 7.44092H1.91077H1.9239L19.9098 1.97999L14.4564 19.9659Z" fill="#6F34E7"/>
</svg>
