<svg width="17" height="18" viewBox="0 0 17 18" fill="none" xmlns="http://www.w3.org/2000/svg">
<path d="M9.08008 7.72998H0.830078C0.631166 7.72998 0.4404 7.809 0.299748 7.94965C0.159096 8.0903 0.0800781 8.28107 0.0800781 8.47998V16.73C0.0800781 16.9289 0.159096 17.1197 0.299748 17.2603C0.4404 17.401 0.631166 17.48 0.830078 17.48H9.08008C9.27899 17.48 9.46976 17.401 9.61041 17.2603C9.75106 17.1197 9.83008 16.9289 9.83008 16.73V8.47998C9.83008 8.28107 9.75106 8.0903 9.61041 7.94965C9.46976 7.809 9.27899 7.72998 9.08008 7.72998ZM8.33008 15.98H1.58008V9.22998H8.33008V15.98ZM16.5801 14.48V15.98C16.5801 16.3778 16.422 16.7593 16.1407 17.0406C15.8594 17.3219 15.4779 17.48 15.0801 17.48H12.8301C12.6312 17.48 12.4404 17.401 12.2997 17.2603C12.1591 17.1197 12.0801 16.9289 12.0801 16.73C12.0801 16.5311 12.1591 16.3403 12.2997 16.1996C12.4404 16.059 12.6312 15.98 12.8301 15.98H15.0801V14.48C15.0801 14.2811 15.1591 14.0903 15.2997 13.9496C15.4404 13.809 15.6312 13.73 15.8301 13.73C16.029 13.73 16.2198 13.809 16.3604 13.9496C16.5011 14.0903 16.5801 14.2811 16.5801 14.48ZM16.5801 7.72998V10.73C16.5801 10.9289 16.5011 11.1197 16.3604 11.2603C16.2198 11.401 16.029 11.48 15.8301 11.48C15.6312 11.48 15.4404 11.401 15.2997 11.2603C15.1591 11.1197 15.0801 10.9289 15.0801 10.73V7.72998C15.0801 7.53107 15.1591 7.3403 15.2997 7.19965C15.4404 7.059 15.6312 6.97998 15.8301 6.97998C16.029 6.97998 16.2198 7.059 16.3604 7.19965C16.5011 7.3403 16.5801 7.53107 16.5801 7.72998ZM16.5801 2.47998V3.97998C16.5801 4.17889 16.5011 4.36966 16.3604 4.51031C16.2198 4.65096 16.029 4.72998 15.8301 4.72998C15.6312 4.72998 15.4404 4.65096 15.2997 4.51031C15.1591 4.36966 15.0801 4.17889 15.0801 3.97998V2.47998H13.5801C13.3812 2.47998 13.1904 2.40096 13.0497 2.26031C12.9091 2.11966 12.8301 1.92889 12.8301 1.72998C12.8301 1.53107 12.9091 1.3403 13.0497 1.19965C13.1904 1.059 13.3812 0.97998 13.5801 0.97998H15.0801C15.4779 0.97998 15.8594 1.13802 16.1407 1.41932C16.422 1.70062 16.5801 2.08216 16.5801 2.47998ZM10.5801 1.72998C10.5801 1.92889 10.5011 2.11966 10.3604 2.26031C10.2198 2.40096 10.029 2.47998 9.83008 2.47998H6.83008C6.63117 2.47998 6.4404 2.40096 6.29975 2.26031C6.1591 2.11966 6.08008 1.92889 6.08008 1.72998C6.08008 1.53107 6.1591 1.3403 6.29975 1.19965C6.4404 1.059 6.63117 0.97998 6.83008 0.97998H9.83008C10.029 0.97998 10.2198 1.059 10.3604 1.19965C10.5011 1.3403 10.5801 1.53107 10.5801 1.72998ZM0.0800781 4.72998V2.47998C0.0800781 2.08216 0.238113 1.70062 0.519418 1.41932C0.800722 1.13802 1.18225 0.97998 1.58008 0.97998H3.08008C3.27899 0.97998 3.46976 1.059 3.61041 1.19965C3.75106 1.3403 3.83008 1.53107 3.83008 1.72998C3.83008 1.92889 3.75106 2.11966 3.61041 2.26031C3.46976 2.40096 3.27899 2.47998 3.08008 2.47998H1.58008V4.72998C1.58008 4.92889 1.50106 5.11966 1.36041 5.26031C1.21976 5.40096 1.02899 5.47998 0.830078 5.47998C0.631166 5.47998 0.4404 5.40096 0.299748 5.26031C0.159096 5.11966 0.0800781 4.92889 0.0800781 4.72998Z" fill="#F04438"/>
</svg>
