<svg width="926" height="200" viewBox="0 0 926 200" fill="none" xmlns="http://www.w3.org/2000/svg">
<g clip-path="url(#clip0_40_1555)">
<path d="M420.063 46.6677V58.6863M420.063 465.009V255.822M420.063 206.762V96.1515" stroke="#916BDC" stroke-dasharray="4 4"/>
<path d="M343.75 45.1959L343.749 300.316M343.749 464.879V318.728" stroke="#916BDC" stroke-dasharray="4 4"/>
<path d="M496.236 63.2872L496.235 300.315V318.728V464.879" stroke="#916BDC" stroke-dasharray="4 4"/>
<path d="M572.405 45.1959V135.416M572.406 464.879V318.727V300.315L572.405 172.036" stroke="#916BDC" stroke-dasharray="4 4"/>
<path d="M648.577 24.2654L648.576 300.316V318.728V464.88" stroke="#916BDC" stroke-dasharray="4 4"/>
<path d="M724.748 0.28125V125.443M724.748 464.879V318.728V300.315L724.748 184.722" stroke="#916BDC" stroke-dasharray="4 4"/>
<path d="M800.916 18.7573V67.6653M800.916 464.879V318.728V300.315V86.3493" stroke="#916BDC" stroke-dasharray="4 4"/>
<path d="M877.086 47.3983V215.137M877.086 464.88V318.728V300.316V251.08" stroke="#916BDC" stroke-dasharray="4 4"/>
<path d="M267.809 23.1635V123.12M267.809 464.877V404.246M267.809 184.848V367.231" stroke="#916BDC" stroke-dasharray="4 4"/>
<path d="M191.122 0.28125V68.0002M191.122 464.874V86.1365" stroke="#916BDC" stroke-dasharray="4 4"/>
<path d="M114.808 21.5675L114.808 279.016M114.808 464.881V341.012" stroke="#916BDC" stroke-dasharray="4 4"/>
<path d="M38.4941 48.8324L38.4943 137.183M38.4943 464.872V238.739M38.4943 171.525V225.878" stroke="#916BDC" stroke-dasharray="4 4"/>
<path d="M-23.8521 154.649H21.4116M930.548 154.649H754.107M238.221 154.649H57.0222M298.491 154.649H554.715M590.063 154.649H694.461" stroke="#916BDC" stroke-dasharray="4 4"/>
<path d="M-22.9307 77.1925L181.136 77.1918M937.493 77.1918H809.817M437.519 77.1918H791.588M401.421 77.1918H200.525" stroke="#916BDC" stroke-dasharray="4 4"/>
<path d="M572.405 172.56L580.009 162.248L590.328 154.649L580.009 147.051L572.405 136.739L564.802 147.051L554.483 154.649L564.802 162.248L572.405 172.56Z" stroke="#916BDC" stroke-dasharray="4 4"/>
<path d="M420.046 95.041L427.65 84.7298L437.968 77.1305L427.65 69.5321L420.046 59.2205L412.442 69.5321L402.123 77.1305L412.442 84.7298L420.046 95.041Z" stroke="#916BDC" stroke-dasharray="4 4"/>
<path d="M38.5349 172.452L46.1388 162.14L56.4575 154.542L46.1388 146.943L38.5349 136.631L30.9309 146.943L20.6123 154.542L30.9309 162.14L38.5349 172.452Z" stroke="#916BDC" stroke-dasharray="4 4"/>
<path d="M267.809 184.504L280.482 167.319L297.68 154.654L280.482 141.99L267.809 124.803L255.136 141.99L237.938 154.654L255.136 167.319L267.809 184.504Z" stroke="#916BDC" stroke-dasharray="4 4"/>
<path d="M724.747 184.504L737.42 167.319L754.615 154.654L737.42 141.99L724.747 124.803L712.074 141.99L694.876 154.654L712.074 167.319L724.747 184.504Z" stroke="#916BDC" stroke-dasharray="4 4"/>
<path d="M800.915 68.2373C805.865 68.2373 809.877 72.2466 809.877 77.1925C809.877 82.1383 805.865 86.1477 800.915 86.1477C795.966 86.1477 791.954 82.1383 791.954 77.1925C791.954 72.2466 795.966 68.2373 800.915 68.2373Z" stroke="#916BDC" stroke-dasharray="4 4"/>
<path d="M190.874 68.2373C195.823 68.2373 199.835 72.2466 199.835 77.1925C199.835 82.1383 195.823 86.1477 190.874 86.1477C185.925 86.1477 181.913 82.1383 181.913 77.1925C181.913 72.2466 185.925 68.2373 190.874 68.2373Z" stroke="#916BDC" stroke-dasharray="4 4"/>
</g>
<defs>
<clipPath id="clip0_40_1555">
<rect width="926" height="200" fill="white"/>
</clipPath>
</defs>
</svg>
